<?xml version="1.0" encoding="utf-8"?>
<svg viewBox="0 -373.711892 964.047533 979.248085" width="964.047533" height="979.248085" xmlns="http://www.w3.org/2000/svg">
  <g style="opacity: 0.06;" transform="matrix(0.532113, 0.532113, -0.532113, 0.532113, 289.241608, -179.796417)">
    <ellipse style="stroke-width: 50px; fill: none; stroke: rgb(1, 22, 39);" cx="242.950073" cy="-119.345016" rx="216.059647" ry="216.059647"/>
    <g style="" transform="matrix(1, 0, 0, 1, 432.275787, -400.446106)">
      <rect x="-0.000002" y="7.137379" width="561.163754" height="60.136208" style="fill: rgb(1, 22, 39);" transform="matrix(0.707107, -0.707107, 0.707107, 0.707107, 21.688084, 418.490143)" rx="27.414785" ry="27.414785"/>
      <rect x="-0.000002" y="7.137385" width="561.164242" height="60.136257" style="fill: rgb(1, 22, 39);" transform="matrix(-0.707107, -0.707107, 0.707107, -0.707107, 418.490204, 478.312653)" rx="27.414785" ry="27.414785"/>
    </g>
    <ellipse style="stroke-width: 50px; fill: none; stroke: rgb(1, 22, 39);" cx="-682.276733" cy="351.081512" rx="216.059647" ry="216.059647" transform="matrix(-1, 0, 0, 1, 0, 0)"/>
    <g style="" transform="matrix(-1, 0, 0, 1, 485.743652, 93.87542)">
      <rect x="-0.000002" y="7.137379" width="561.163754" height="60.136208" style="fill: rgb(1, 22, 39);" transform="matrix(0.707107, -0.707107, 0.707107, 0.707107, 21.688084, 418.490143)" rx="27.414785" ry="27.414785"/>
      <rect x="-0.000002" y="7.137385" width="561.164242" height="60.136257" style="fill: rgb(1, 22, 39);" transform="matrix(-0.707107, -0.707107, 0.707107, -0.707107, 418.490204, 478.312653)" rx="27.414785" ry="27.414785"/>
    </g>
  </g>
</svg>